<svg width="145" height="31" viewBox="0 0 145 31" fill="none" xmlns="http://www.w3.org/2000/svg">
<path d="M1.44489 28.9248C2.21981 28.2576 2.62087 30.0411 1.85602 30.5723C1.85696 30.5726 1.85806 30.5739 1.85895 30.5742C1.82675 30.5943 1.54176 30.4597 1.31891 30.2744C1.2264 30.1707 1.04606 30.1143 0.972229 30.0273C0.893404 29.943 0.858849 29.8636 0.844299 29.8408C0.800127 29.7815 0.901553 29.6678 0.906799 29.6338C0.925271 29.5922 0.957834 29.5652 1.00153 29.5488C1.08031 29.5214 1.2538 29.507 1.34528 29.5498C1.56007 29.617 1.81271 29.7055 1.96051 29.4561C2.0882 29.2013 1.29136 29.0535 1.44489 28.9248ZM134.489 0.286133C136.305 -0.48634 138.403 0.35918 139.175 2.1748L144.604 14.9336C145.469 16.9663 144.521 19.3149 142.489 20.1797L129.731 25.6084C127.915 26.3809 125.817 25.5352 125.044 23.7197C124.272 21.9039 125.117 19.8048 126.933 19.0322L131.472 17.1006C131.459 17.096 131.445 17.0926 131.432 17.0879C131.278 17.0322 131.474 16.6734 131.464 16.6416C131.391 16.4282 130.913 16.1751 130.863 16.1367C130.587 15.926 130.41 16.7635 130.291 16.7793C129.054 16.9361 128.062 16.527 126.946 16.2373C126.764 16.1902 127.051 15.7641 126.957 15.7402C124.629 15.1726 122.313 14.9138 120.032 14.2119C120.088 13.9459 120.159 13.6547 120.201 13.4033C120.01 13.1783 119.7 14.0438 119.581 14.0576C117.823 14.2363 116.296 13.8038 114.734 13.4102C114.504 13.353 114.87 12.9734 114.698 12.9033C114.292 12.7409 113.842 12.6737 113.395 12.7217C113.209 12.7435 113.359 13.1619 113.173 13.1914C112.79 13.2522 112.338 13.1799 111.998 13.0391C111.831 12.9717 112.078 12.5739 111.972 12.541C110.669 12.1276 109.364 12.0463 108.054 11.6748C107.957 11.6433 108.163 11.2118 108.047 11.1836C106.211 10.737 104.628 10.7818 102.641 10.6025C101.126 10.4679 99.1296 10.3512 97.5836 9.83301C97.2661 9.72787 97.0773 10.0128 96.7564 9.63184C96.6862 9.5479 96.4403 8.74462 96.1216 9.2627C96.0757 9.33678 96.1317 9.69686 95.9586 9.72168C95.0362 9.84531 94.0856 9.76382 93.1861 9.57324C93.0345 9.54225 93.2812 9.11756 93.1138 9.07617C92.6528 8.96871 92.1393 8.87604 91.6529 9.04102C91.4802 9.1002 91.5928 9.81841 91.3726 9.45117C91.3515 9.41366 91.4846 9.03457 91.3619 8.99316C90.9162 8.84032 90.4967 9.18133 90.0318 8.84473C89.9575 8.78882 89.8987 7.95815 89.5963 8.53809C89.5785 8.57573 89.6829 8.92929 89.4742 8.95703C88.9054 9.02962 88.19 9.06784 87.6295 8.91309C87.4264 8.85676 87.6688 8.46149 87.5328 8.41504C87.0226 8.2442 86.4885 8.24242 85.9937 8.07324C85.8546 8.02293 85.9763 7.63561 85.9556 7.6123C85.7904 7.48421 85.5373 8.19815 85.4449 8.37012C85.0991 9.01859 84.5673 7.94022 84.5123 7.80566C84.1999 7.00943 84.2254 7.90942 84.1539 8.0127C83.8131 8.50692 83.8531 7.76297 83.7144 7.66016C83.2462 7.32008 82.7082 7.59336 82.2808 7.59668C82.0196 7.59979 82.2099 8.01225 82.1793 8.04199C81.8212 8.33168 81.505 8.45573 81.1539 8.49902C81.0076 8.51825 81.048 8.19345 80.8902 8.1709C80.5363 8.12364 80.1479 8.30215 79.7759 8.21875C79.6685 8.19387 79.8036 7.77256 79.6763 7.73926C79.0552 7.58154 78.5711 8.03985 77.8922 7.69824C77.8226 7.66376 77.5137 6.60844 77.2183 6.71582C76.6079 6.94217 77.6111 7.36001 76.8199 7.91504C75.8387 8.6054 73.9112 8.35166 72.7994 8.39453C72.5016 8.4046 72.6498 8.07315 72.4488 8.0957C71.5261 8.20321 70.6179 8.53207 69.7369 8.69141C69.3019 8.76982 68.858 8.80975 68.3961 8.7627C68.073 8.72995 68.1882 7.80036 67.942 7.56934C67.6945 7.33902 67.2966 7.54119 67.1119 7.72168C66.9295 7.90235 67.1113 8.45079 66.9322 8.56348C66.4289 8.88313 65.8312 8.73891 65.3218 9.0166C65.2153 9.07497 65.3381 9.41131 65.3189 9.50098C65.1975 10.0726 64.8077 9.41421 64.7291 9.34375C64.2876 8.9454 63.9566 9.29292 63.6226 9.12695C63.4046 9.01925 63.4908 8.7632 63.399 8.67383C62.9143 8.21701 63.144 9.24563 63.148 9.41309C63.1678 10.4241 62.3934 9.10694 62.3609 9.06836C61.9107 8.5102 61.8156 9.34857 61.7427 9.51074C61.5042 10.0258 61.0555 9.84251 60.8199 9.93848C60.5862 10.0338 60.6339 9.6027 60.6148 9.56836C60.2946 9.07847 60.2452 9.90919 60.2418 9.9668C60.1916 10.7819 59.4763 10.0158 59.4 10.0078C58.0963 9.94161 57.3724 10.9254 56.0757 10.8506C56.0223 10.8477 55.494 10.1066 55.4361 10.7324C55.4278 10.836 55.6139 11.1234 55.4693 11.2207C54.8804 11.6104 54.1525 11.836 53.4732 11.9785C53.3291 12.008 53.3218 11.5241 53.2232 11.5498C52.4972 11.7335 51.7916 12.128 51.1168 12.3984C50.9728 12.4558 50.8888 12.1771 50.8648 12.1719C50.5884 12.1383 50.819 12.5653 50.5601 12.5439C50.3612 12.5253 49.6728 11.3502 49.5533 11.3174C49.0431 11.185 48.9869 11.5398 48.9273 12.1914C48.911 12.371 49.3567 13.1974 48.8873 12.875C48.8695 12.8577 48.7924 12.4943 48.7476 12.4902C48.4128 12.4665 48.2824 12.7195 47.939 12.7559C47.505 12.8029 46.7249 12.9377 46.3638 13.1025C45.6033 13.4462 45.3311 14.0588 44.3961 13.8223C44.3642 13.8094 44.0404 13.0309 43.8336 13.3174C43.6259 13.6061 43.2615 14.0913 42.897 14.125C42.895 14.9245 42.5869 15.151 42.0367 15.0186C41.4865 14.8861 40.9541 14.517 40.4908 14.9014C40.4591 14.9309 40.6379 15.3273 40.6246 15.3408C39.7739 15.8618 38.8343 16.122 37.8023 16.1572C37.7588 16.1584 37.6547 15.7818 37.566 15.7695C37.4023 15.7497 36.7626 16.1067 36.7486 16.2178C36.7391 16.2068 36.4171 15.5424 36.4771 15.9893C36.3782 16.2545 36.7396 16.2135 36.7486 16.2178C36.7277 16.389 36.5232 17.5229 35.9927 17.1523C35.7184 16.9613 35.6474 16.5449 35.2193 16.6201C34.5587 16.7344 33.9378 17.6428 33.2613 18.0127C32.8731 18.226 32.0875 18.3144 31.7017 18.4844C30.9098 18.8335 30.3295 19.3744 29.5464 19.668C29.4436 19.7068 29.3484 19.3006 29.313 19.2988C28.9268 19.3047 28.762 19.7013 28.398 19.7471C28.2607 19.7645 28.2731 19.3272 28.0787 19.3721C27.5356 19.4994 27.1889 20.391 26.5298 20.2002C26.241 20.1162 26.0336 19.4221 25.7623 19.4502C25.1643 19.513 25.5436 19.9147 25.5611 20.4004C25.5905 21.44 25.2031 21.4743 24.5826 20.6328C24.6063 20.5695 24.8156 20.5793 24.7857 20.4814C24.5062 19.5864 24.1749 19.6706 24.5826 20.6328C24.3885 20.782 24.0614 20.8129 24.4615 21.332C24.4951 21.3757 24.7269 20.9237 24.7515 21.5166C24.7613 21.7468 24.6855 22.5901 24.2867 22.3789C23.8875 22.167 23.424 21.2094 23.1343 21.71C23.1184 21.7393 23.2782 22.0378 23.2759 22.1113C23.255 22.6671 22.6988 22.2236 22.5425 22.1992C22.0094 22.1196 21.8769 22.4541 21.5972 22.7412C21.4445 22.8984 22.0245 23.4771 21.5494 23.2432C21.4745 23.2067 20.6991 22.4489 20.6666 22.4561C20.1131 22.6697 20.9076 24.4224 20.2125 24.126C20.0502 24.0549 19.8563 23.206 19.6129 23.668C19.5493 23.7921 19.6701 24.0184 19.5435 24.1143C19.1819 24.3881 18.4944 24.3631 18.6822 25.3428C18.2511 25.4209 17.6472 25.1865 17.2496 25.2715C16.7409 25.3819 16.4968 25.8644 16.0142 26.0273C15.9007 26.0644 15.7978 25.6113 15.6968 25.6543C14.8878 26.0207 14.2477 26.6524 13.4683 27.0869C13.0602 26.3463 12.6351 25.5939 12.2369 24.8535C12.033 25.3347 12.6583 25.8972 12.7603 26.4268C12.8622 26.9525 12.3147 26.4526 12.2974 26.9395C12.2849 27.112 12.3491 27.7571 12.2164 27.9014C11.995 28.1404 11.6277 28.1244 11.3404 28.1357C11.0525 28.1484 11.0397 28.4452 10.7427 28.4033C10.6962 28.3945 10.5477 28.1111 10.4927 28.0674C10.0561 27.7278 10.0882 28.6087 10.0865 28.6758C10.0454 29.6855 9.65165 28.639 9.40387 28.4736C8.26882 27.6865 8.67811 29.0744 8.11774 29.4932C7.94901 29.6167 7.44354 28.7379 7.14313 28.7266C6.66937 28.7143 6.37392 29.1231 5.80231 29.0586C5.68385 29.0394 4.80922 28.3265 5.05524 29.2393C5.08036 29.3227 5.77839 30.7072 5.25055 30.4756C5.18132 30.4466 4.43474 29.75 4.35699 29.7275C4.00375 29.6526 3.92104 30.0692 3.69684 30.0215C3.47251 29.9726 3.0143 29.0391 3.03571 28.9863C3.32702 28.3228 4.4926 30.4257 3.67828 28.3691C4.27593 29.007 4.40898 28.4165 4.84625 28.2988C4.8775 28.2937 4.95634 28.7339 5.1402 28.6289C5.55992 28.3813 6.13379 28.1268 6.48102 27.6719C6.626 27.4643 6.25935 27.3974 6.34137 27.1406C6.42563 26.8824 6.72927 27.1895 6.73785 26.6455C6.73858 26.5022 6.76062 25.6768 7.21051 25.9688C7.26268 26.0023 7.41486 26.282 7.46832 26.3037C7.69515 26.3885 7.67652 26.094 7.88922 26.1699C7.93999 26.1874 8.02031 26.5126 8.1109 26.5195C8.58237 26.5476 8.78322 26.4199 9.23199 27.2393C9.47968 26.9825 9.27079 26.0209 9.42633 25.7461C9.6105 25.3973 9.97074 25.7304 10.1802 25.5996C10.3908 25.4672 10.1642 25.1893 10.3423 25.0771C10.8175 24.7779 11.4256 24.7893 11.8746 24.4424C11.9838 24.3596 11.9215 24.0105 12.0845 23.9082C12.1952 23.8402 12.6839 24.4078 12.7437 24.4023C14.0549 24.2679 14.745 23.1433 15.9732 22.9053C15.9263 21.4183 17.487 23.5583 17.8882 23.5791C18.8873 23.6329 17.6237 21.963 17.7427 21.3535C17.8477 20.7994 18.5553 21.0898 18.7027 20.9854C19.5145 20.4115 19.9191 19.8024 20.8365 19.626C20.8617 19.6286 20.9639 20.0386 21.0855 19.9834C21.3407 19.867 21.6277 19.5755 21.8668 19.4434C22.0174 19.3607 22.413 19.9125 22.438 19.9238C23.1253 20.1521 23.252 19.4965 23.1197 18.7607C22.9872 18.0247 23.4259 18.7584 23.3931 18.3018C23.3822 18.1587 23.2467 17.9556 23.2476 17.875C23.2611 17.2803 23.8459 17.7624 24.0035 17.7939C24.6556 17.9232 25.1085 17.2207 25.4478 17.0342C25.7818 16.8503 25.3853 16.6135 25.3765 16.5674C25.3217 15.9183 25.7102 16.6621 25.7466 16.6729C26.7417 16.8847 27.1202 16.0405 28.023 15.9805C28.1079 15.9779 28.5799 16.6579 28.5552 16.0195C28.553 15.9775 28.3401 15.6883 28.4351 15.6035C28.7118 15.3559 29.0958 15.2408 29.4185 15.0635C29.947 15.7452 30.5392 15.7918 30.0494 14.6826C30.5325 14.392 31.1624 13.6223 31.65 13.4951C32.27 13.3341 32.6219 14.0071 33.0982 13.6387C33.1691 13.5803 32.9446 13.2512 32.9605 13.2246C33.3861 12.6986 33.4836 13.5359 33.8951 14.1494C34.0204 14.337 34.123 13.9459 34.2232 14.0127C34.556 14.2347 34.6801 14.6924 34.9976 14.5586C35.5279 14.3352 35.4914 13.6379 35.0005 12.6729C35.6891 13.2688 35.7106 14.0455 36.3072 13.5078C36.3629 13.455 36.1018 13.0977 36.2027 13.0166C36.9465 12.4337 37.8277 12.0668 38.567 11.4609C38.6591 11.3826 38.4295 11.0556 38.4517 11.0303C38.8461 10.6003 38.8844 11.3774 39.274 11.9824C39.4586 12.2677 40.1602 12.6049 40.3199 12.4746C40.4787 12.3441 40.2334 12.2054 40.2496 12.0127C40.2663 11.8201 40.4508 12.0998 40.4019 11.7793C40.3544 11.4574 39.6144 10.1551 40.1617 10.2432C40.7075 10.333 40.6525 10.995 41.3023 10.5381C41.6625 10.2859 41.9035 10.2569 42.5679 9.94629C43.2319 9.63394 44.632 8.46641 45.6578 8.64355C45.9287 8.69004 45.9669 9.53276 46.1509 9.79785C46.4517 9.70202 46.0652 9.31972 46.0601 8.97461C46.0553 8.62717 46.4034 9.12563 46.3941 8.60645C46.3911 8.4637 46.3406 7.78999 46.7271 8.19727C46.7517 8.22727 46.776 8.57086 46.942 8.56445C47.2863 8.54961 47.4223 8.34089 47.648 9.17773C47.8401 8.71428 47.1339 7.75235 47.6382 7.77539C47.6605 7.7802 47.7062 8.20923 47.8414 8.18359C49.5715 7.85756 50.9616 6.7134 52.7154 6.25977C52.7499 6.24918 53.1948 6.32486 53.3365 6.44727C53.3601 6.46988 53.36 6.88923 53.565 6.84277C53.7709 6.79553 54.3055 6.66066 54.4839 6.49512C54.6634 6.3288 54.3753 6.08439 54.4673 5.98242C54.6751 5.75425 54.5872 6.33112 54.8072 6.35449C55.1033 6.38591 55.5419 6.19509 55.7681 6.02344C55.9192 5.90859 55.7427 5.62002 55.7554 5.53125C55.8499 4.91544 56.413 5.5767 56.5015 5.61719C57.0458 5.86202 57.1861 5.40922 57.6089 5.41406C57.7155 5.41689 57.6943 5.72581 57.7984 5.66504C58.1778 5.4412 58.2486 4.08969 58.8599 4.62402C59.1173 4.85161 59.101 6.28685 59.5699 5.63867C59.6405 5.53967 59.4634 5.33389 59.5318 5.17188C59.6002 5.00946 59.9199 4.51796 60.0757 4.68359C60.2314 4.85167 60.5277 6.5777 60.6461 5.80078C60.7675 5.02039 60.5088 4.86289 60.9683 4.25684C60.9766 4.23318 60.7603 3.89984 60.9537 3.78223C61.15 3.66302 61.9078 3.5305 62.0728 3.47559C62.4877 3.33905 62.6253 4.49944 62.6929 4.56641C63.2197 5.05944 63.1317 4.05782 63.3541 3.70996C63.4516 3.56035 63.5984 3.68683 63.7047 3.54785C63.7379 3.50245 63.6081 3.14082 63.6226 3.13477C64.1085 3.05039 64.3983 5.09025 64.6822 4.64355C64.7154 4.58484 64.4808 3.99401 64.565 3.7168C64.5877 3.64007 64.8316 2.62756 64.9957 2.80371C65.6409 3.50805 65.588 4.17353 66.3248 3.82715C66.3854 3.79788 66.2687 3.39199 66.2994 3.37695C67.2064 2.90742 68.1575 2.65425 69.1021 2.50391C70.7245 2.24614 72.3966 2.28157 74.0484 2.00098C74.513 2.99748 75.0533 2.26843 75.6773 2.48828C75.7568 2.52173 75.9262 3.36518 76.1627 2.72852C76.1771 2.68725 76.0026 2.36073 76.2418 2.30371C77.7954 1.93495 79.4495 1.83664 81.0035 2.01172C81.2357 2.03771 81.0345 2.46917 81.1158 2.48926C81.801 2.63903 82.3012 1.77576 83.0142 2.06738C83.0715 2.09007 83.2159 2.94368 83.4673 2.36035C83.4835 2.3231 83.4596 1.9739 83.5386 1.94434C83.9143 1.8003 83.9543 2.56786 84.3463 2.4043C84.4355 2.36608 84.2943 1.95255 84.4781 1.91504C85.3085 1.75537 86.1843 1.7763 87.0084 1.91113C87.1675 1.93841 86.9335 2.39668 87.0992 2.4082C87.8169 2.45573 88.3645 2.68596 89.1773 2.29883C89.2839 2.24519 89.8311 1.44263 90.0591 1.9834C90.0859 2.05016 90.019 2.39896 90.1314 2.45312C90.6845 2.7142 91.3319 2.65538 91.8961 2.86426C92.0291 2.91427 91.8672 3.29281 91.9537 3.3457C92.3362 3.5822 92.0673 3.09769 92.4244 2.90332C92.9788 2.60158 93.6855 2.61376 94.2681 2.61621C94.5462 4.46655 95.9761 3.82986 96.8677 3.6123C97.0128 3.57461 96.8934 3.13961 97.0357 3.12695C98.4557 3.0051 99.8405 3.1626 101.21 3.43848C101.338 3.46532 101.139 3.91009 101.245 3.93066C102.247 4.1306 103.149 4.06207 104.191 4.21582C105.067 4.34662 106.002 4.67651 106.913 4.84863C108.117 5.07486 109.282 4.81014 110.497 5.41699C110.564 5.45438 110.936 6.38753 111.285 5.83789C111.327 5.77244 111.323 5.45044 111.499 5.38965C111.676 5.3293 112.142 5.38955 112.31 5.49414C112.475 5.59807 112.245 5.95954 112.352 6.00293C112.857 6.19858 113.472 6.13117 113.954 6.22461C114.305 6.29548 114.366 6.31251 114.748 6.33203C114.949 6.34418 115.414 6.51685 115.684 6.48047C115.803 6.46384 115.786 6.06158 115.82 6.03906C116.314 5.72771 115.753 6.35171 116.141 6.50098C117.043 6.84686 118.151 7.06447 119.211 6.91113C119.478 6.87185 119.524 6.11916 119.791 6.65918C119.806 6.69573 119.65 7.03509 119.769 7.08398C120.836 7.50542 122.149 7.43008 123.244 7.63574C126.46 8.2331 129.59 8.89307 132.793 9.33105C133.461 9.42962 133.959 9.66562 134.608 9.69238L132.6 4.97266C131.828 3.15691 132.673 1.05878 134.489 0.286133ZM7.83844 27.749C7.81667 27.356 7.31945 27.2467 7.34039 27.5605C7.36585 27.9519 7.85456 28.0651 7.83844 27.749ZM11.4244 27.3145C12.0211 27.4856 10.9823 25.6371 10.8492 26.293C10.8423 26.3323 11.389 27.3028 11.4244 27.3145ZM15.0582 25.5918C15.0525 25.0239 14.3944 24.2692 14.3775 25.0166C14.3734 25.244 15.0644 26.1568 15.0582 25.5918ZM29.4195 15.0625C29.3561 14.4365 29.6433 14.3729 30.0533 14.7158C29.844 14.8379 29.6253 14.9385 29.4195 15.0625ZM45.0357 12.707C45.4311 12.947 44.8978 11.5508 44.7759 12.0254C44.7694 12.0488 45.0132 12.6856 45.0357 12.707ZM44.5406 10.1846C44.5275 10.1688 44.3276 10.2585 44.3277 10.2793C44.4036 10.7758 44.8097 10.5927 44.5406 10.1846ZM58.1343 6.42188C58.1078 6.29867 57.9594 6.35523 57.9605 6.37793C57.9802 6.7582 58.2189 6.81761 58.1343 6.42188ZM67.4918 3.58398C67.4682 3.54786 66.9595 3.65434 66.9517 3.69824C66.8352 4.53595 67.8567 4.31857 67.4918 3.58398Z" fill="#2D96BC"/>
</svg>
