<svg width="1440" height="843" viewBox="0 0 1440 843" fill="none" xmlns="http://www.w3.org/2000/svg">
<g opacity="0.08">
<line x1="106.355" y1="-1.95541e-08" x2="106.356" y2="772" stroke="#A2A2A2"/>
<line x1="229.285" y1="-1.97977e-08" x2="229.285" y2="772" stroke="#A2A2A2"/>
<line x1="352.215" y1="-1.97977e-08" x2="352.215" y2="772" stroke="#A2A2A2"/>
<line x1="475.145" y1="-1.95541e-08" x2="475.145" y2="772" stroke="#A2A2A2"/>
<line x1="598.07" y1="-1.8614e-08" x2="598.07" y2="772" stroke="#A2A2A2"/>
<line x1="721" y1="-1.88459e-08" x2="721" y2="772" stroke="#A2A2A2"/>
<line x1="843.93" y1="-1.8614e-08" x2="843.93" y2="772" stroke="#A2A2A2"/>
<line x1="966.857" y1="-1.97977e-08" x2="966.857" y2="772" stroke="#A2A2A2"/>
<line x1="1089.79" y1="-1.88459e-08" x2="1089.79" y2="772" stroke="#A2A2A2"/>
<line x1="1212.71" y1="-1.88459e-08" x2="1212.71" y2="772" stroke="#A2A2A2"/>
<line x1="1335.64" y1="-1.88459e-08" x2="1335.64" y2="772" stroke="#A2A2A2"/>
</g>
<g opacity="0.08">
<line x1="99" y1="745.07" x2="1539" y2="745.07" stroke="#A2A2A2"/>
<line x1="99" y1="622.145" x2="1539" y2="622.144" stroke="#A2A2A2"/>
<line x1="99" y1="499.215" x2="1539" y2="499.215" stroke="#A2A2A2"/>
<line x1="99" y1="376.285" x2="1539" y2="376.285" stroke="#A2A2A2"/>
<line x1="99" y1="253.355" x2="1539" y2="253.355" stroke="#A2A2A2"/>
<line x1="99" y1="130.43" x2="1539" y2="130.43" stroke="#A2A2A2"/>
<line x1="99" y1="7.5" x2="1539" y2="7.49993" stroke="#A2A2A2"/>
</g>
</svg>
