<svg xmlns="http://www.w3.org/2000/svg" width="34" height="34" viewBox="0 0 34 34" fill="none"><path d="M14.1665 15.5833V11.3333L21.2498 16.9999L14.1665 22.6666V18.4166H1.4165V15.5833H14.1665ZM3.48172 21.2499H6.49032C8.17158 25.4033 12.2435 28.3333 16.9998 28.3333C23.2591 28.3333 28.3332 23.2592 28.3332 16.9999C28.3332 10.7407 23.2591 5.66659 16.9998 5.66659C12.2435 5.66659 8.17158 8.59649 6.49032 12.7499H3.48172C5.28694 7.00235 10.6565 2.83325 16.9998 2.83325C24.8238 2.83325 31.1665 9.17588 31.1665 16.9999C31.1665 24.8239 24.8238 31.1666 16.9998 31.1666C10.6565 31.1666 5.28694 26.9975 3.48172 21.2499Z" fill="#1A3E62"></path></svg>